<svg width="25" height="24" viewBox="0 0 25 24" fill="none" xmlns="http://www.w3.org/2000/svg">
<path d="M20.226 5.77772C20.9001 6.78661 20.9001 8.19108 20.9001 11C20.9001 13.8089 20.9001 15.2134 20.226 16.2223C19.9342 16.659 19.5592 17.034 19.1224 17.3259C18.2411 17.9148 17.0578 17.9892 14.9001 17.9986V18L13.7946 20.2111C13.426 20.9482 12.3742 20.9482 12.0057 20.2111L10.9001 18V17.9986C8.74244 17.9892 7.55922 17.9148 6.67787 17.3259C6.2411 17.034 5.8661 16.659 5.57427 16.2223C4.90015 15.2134 4.90015 13.8089 4.90015 11C4.90015 8.19108 4.90015 6.78661 5.57427 5.77772C5.8661 5.34096 6.2411 4.96596 6.67787 4.67412C7.68676 4 9.09122 4 11.9001 4H13.9001C16.7091 4 18.1135 4 19.1224 4.67412C19.5592 4.96596 19.9342 5.34096 20.226 5.77772Z" stroke="#33363F" stroke-width="2" stroke-linecap="round" stroke-linejoin="round"/>
<path d="M9.90015 9L15.9001 9" stroke="#33363F" stroke-width="2" stroke-linecap="round" stroke-linejoin="round"/>
<path d="M9.90015 13H12.9001" stroke="#33363F" stroke-width="2" stroke-linecap="round" stroke-linejoin="round"/>
</svg>
