<svg width="25" height="24" viewBox="0 0 25 24" fill="none" xmlns="http://www.w3.org/2000/svg">
<path d="M5.30005 12.7596C5.30005 11.4019 5.30005 10.723 5.57451 10.1262C5.84897 9.52949 6.36441 9.08769 7.3953 8.20407L8.3953 7.34693C10.2586 5.7498 11.1903 4.95123 12.3 4.95123C13.4098 4.95123 14.3415 5.7498 16.2048 7.34693L17.2048 8.20407C18.2357 9.08769 18.7511 9.52949 19.0256 10.1262C19.3 10.723 19.3 11.4019 19.3 12.7596V17C19.3 18.8856 19.3 19.8284 18.7143 20.4142C18.1285 21 17.1857 21 15.3 21H9.30005C7.41443 21 6.47162 21 5.88584 20.4142C5.30005 19.8284 5.30005 18.8856 5.30005 17V12.7596Z" stroke="#111111" stroke-width="2"/>
<path d="M14.8 21V16C14.8 15.4477 14.3523 15 13.8 15H10.8C10.2478 15 9.80005 15.4477 9.80005 16V21" stroke="#111111" stroke-width="2" stroke-linecap="round" stroke-linejoin="round"/>
</svg>
