<svg width="11" height="13" viewBox="0 0 11 13" fill="none" xmlns="http://www.w3.org/2000/svg">
<path fill-rule="evenodd" clip-rule="evenodd" d="M5.01645 1.68034C3.99905 1.68034 3.02332 2.0845 2.30391 2.80391C1.5845 3.52332 1.18034 4.49905 1.18034 5.51645C1.18034 7.00057 2.14866 8.45505 3.23175 9.59832C3.76122 10.1572 4.2927 10.6151 4.69248 10.9334C4.81448 11.0306 4.92377 11.1144 5.01645 11.1837C5.10912 11.1144 5.21842 11.0306 5.34042 10.9334C5.74019 10.6151 6.27167 10.1572 6.80115 9.59832C7.88424 8.45505 8.85256 7.00057 8.85256 5.51645C8.85256 4.49905 8.44839 3.52332 7.72899 2.80391C7.00958 2.0845 6.03385 1.68034 5.01645 1.68034ZM5.01645 11.91C4.68908 12.401 4.68893 12.4009 4.68877 12.4008L4.68724 12.3998L4.68378 12.3975L4.67216 12.3896C4.66234 12.3829 4.64843 12.3734 4.63071 12.3611C4.59528 12.3366 4.54455 12.301 4.48072 12.2549C4.35311 12.1627 4.17275 12.0284 3.95721 11.8568C3.52705 11.5142 2.95197 11.0192 2.37487 10.4101C1.24482 9.21726 0 7.47499 0 5.51645C3.51769e-08 4.186 0.528517 2.91005 1.46928 1.96928C2.41005 1.02852 3.686 0.5 5.01645 0.5C6.34689 0.5 7.62285 1.02852 8.56361 1.96928C9.50438 2.91005 10.0329 4.186 10.0329 5.51645C10.0329 7.47499 8.78807 9.21726 7.65802 10.4101C7.08093 11.0192 6.50584 11.5142 6.07569 11.8568C5.86014 12.0284 5.67979 12.1627 5.55218 12.2549C5.48834 12.301 5.43762 12.3366 5.40218 12.3611C5.38446 12.3734 5.37056 12.3829 5.36074 12.3896L5.34911 12.3975L5.34566 12.3998L5.34454 12.4005C5.34437 12.4006 5.34382 12.401 5.01645 11.91ZM5.01645 11.91L5.34382 12.401C5.14558 12.5332 4.88701 12.533 4.68877 12.4008L5.01645 11.91Z" fill="#111111"/>
<path fill-rule="evenodd" clip-rule="evenodd" d="M5.01677 4.63109C4.52786 4.63109 4.13151 5.02743 4.13151 5.51634C4.13151 6.00525 4.52786 6.4016 5.01677 6.4016C5.50568 6.4016 5.90202 6.00525 5.90202 5.51634C5.90202 5.02743 5.50568 4.63109 5.01677 4.63109ZM2.95117 5.51634C2.95117 4.37554 3.87597 3.45074 5.01677 3.45074C6.15757 3.45074 7.08237 4.37554 7.08237 5.51634C7.08237 6.65714 6.15757 7.58194 5.01677 7.58194C3.87597 7.58194 2.95117 6.65714 2.95117 5.51634Z" fill="#111111"/>
</svg>
