<svg width="18" height="20" viewBox="0 0 18 20" fill="none" xmlns="http://www.w3.org/2000/svg">
<path d="M10.0158 1.25V1.95313C12.8283 2.42188 15.0158 4.88281 15.0158 7.8125V9.14062C15.0158 10.8984 15.6018 12.6172 16.6955 14.0234L17.2815 14.7266C17.5158 15.0391 17.5549 15.4297 17.3987 15.7422C17.2424 16.0547 16.9299 16.25 16.5783 16.25H0.953137C0.562507 16.25 0.250003 16.0547 0.0937512 15.7422C-0.0625008 15.4297 -0.0234378 15.0391 0.21094 14.7266L0.796885 14.0234C1.89065 12.6172 2.51566 10.8984 2.51566 9.14062V7.8125C2.51566 4.88281 4.66412 2.42188 7.51572 1.95313V1.25C7.51572 0.585938 8.0626 0 8.76573 0C9.4298 0 10.0158 0.585938 10.0158 1.25ZM8.45323 3.75C6.18758 3.75 4.39068 5.58594 4.39068 7.8125V9.14062C4.39068 11.0156 3.8438 12.8125 2.82816 14.375H14.6642C13.6486 12.8125 13.1408 11.0156 13.1408 9.14062V7.8125C13.1408 5.58594 11.3048 3.75 9.07824 3.75H8.45323ZM11.2658 17.5C11.2658 18.1641 10.9923 18.8281 10.5236 19.2969C10.0548 19.7656 9.39074 20 8.76573 20C8.10166 20 7.43759 19.7656 6.96884 19.2969C6.50008 18.8281 6.2657 18.1641 6.2657 17.5H11.2658Z" fill="#6B7280"/>
</svg>
