<svg width="10" height="10" viewBox="0 0 10 10" fill="none" xmlns="http://www.w3.org/2000/svg">
<path d="M9.20911 3.41916L6.51109 3.00855L5.305 0.448076C5.27206 0.377972 5.21786 0.321221 5.15092 0.286725C4.98302 0.19993 4.77899 0.272259 4.69505 0.448076L3.48896 3.00855L0.790932 3.41916C0.716548 3.43028 0.648539 3.46701 0.59647 3.52264C0.533522 3.5904 0.498834 3.68155 0.50003 3.77607C0.501225 3.87059 0.538206 3.96074 0.602846 4.02673L2.5549 6.01969L2.09372 8.83387C2.08291 8.89933 2.08982 8.96666 2.11369 9.02821C2.13756 9.08977 2.17741 9.14309 2.22875 9.18213C2.28008 9.22118 2.34083 9.24437 2.40411 9.2491C2.4674 9.25383 2.53068 9.23989 2.58678 9.20887L5.00002 7.88023L7.41326 9.20887C7.47914 9.24559 7.55565 9.25783 7.62898 9.24448C7.81387 9.21109 7.9382 9.02749 7.90632 8.83387L7.44514 6.01969L9.3972 4.02673C9.45033 3.9722 9.4854 3.90098 9.49602 3.82309C9.52471 3.62836 9.39507 3.44809 9.20911 3.41916Z" fill="#FACA15"/>
</svg>
