<svg width="25" height="24" viewBox="0 0 25 24" fill="none" xmlns="http://www.w3.org/2000/svg">
<path d="M9.45429 21C10.1594 21.6224 11.0857 22 12.1001 22C13.1146 22 14.0408 21.6224 14.7459 21M18.1001 8C18.1001 6.4087 17.468 4.88258 16.3428 3.75736C15.2175 2.63214 13.6914 2 12.1001 2C10.5088 2 8.98269 2.63214 7.85748 3.75736C6.73226 4.88258 6.10012 6.4087 6.10012 8C6.10012 11.0902 5.32059 13.206 4.44978 14.6054C3.71524 15.7859 3.34797 16.3761 3.36144 16.5408C3.37635 16.7231 3.41498 16.7926 3.56189 16.9016C3.69458 17 4.29271 17 5.48897 17H18.7113C19.9075 17 20.5057 17 20.6383 16.9016C20.7853 16.7926 20.8239 16.7231 20.8388 16.5408C20.8523 16.3761 20.485 15.7859 19.7505 14.6054C18.8796 13.206 18.1001 11.0902 18.1001 8Z" stroke="#6B7280" stroke-width="2" stroke-linecap="round" stroke-linejoin="round"/>
</svg>
