<svg width="22" height="22" viewBox="0 0 22 22" fill="none" xmlns="http://www.w3.org/2000/svg">
<g filter="url(#filter0_d_50_1542)">
<circle cx="11" cy="8" r="8" fill="white"/>
</g>
<path d="M10.1111 5.2889C10.6267 5.2889 11.0444 5.70668 11.0444 6.22224C11.0444 6.73779 10.6267 7.15557 10.1111 7.15557C9.59554 7.15557 9.17776 6.73779 9.17776 6.22224C9.17776 5.70668 9.59554 5.2889 10.1111 5.2889ZM10.1111 9.2889C11.4311 9.2889 12.3333 9.93779 12.3333 10.2222V10.6667L7.39999 10.7111V10.2222C7.39999 9.93779 8.7911 9.2889 10.1111 9.2889ZM10.1111 4.44446C9.12888 4.44446 8.33332 5.24001 8.33332 6.22224C8.33332 7.20446 9.12888 8.00001 10.1111 8.00001C11.0933 8.00001 11.8889 7.20446 11.8889 6.22224C11.8889 5.24001 11.0933 4.44446 10.1111 4.44446ZM10.1111 8.44446C8.92443 8.44446 6.55554 9.04001 6.55554 10.2222V11.5556H12.7778L12.1351 9.92276C12.1351 8.74054 11.2978 8.44446 10.1111 8.44446Z" fill="black"/>
<g clip-path="url(#clip0_50_1542)">
<path d="M13.6666 6.81479L11.2963 7.70368V9.50812C11.2963 11.0044 12.3066 12.4 13.6666 12.7407C15.0266 12.4 16.037 11.0044 16.037 9.50812V7.70368L13.6666 6.81479ZM13.3526 10.8266L12.3037 9.77775L12.7214 9.35997L13.3496 9.98812L14.6059 8.73183L15.0237 9.1496L13.3526 10.8266Z" fill="#6C2BD9"/>
</g>
<defs>
<filter id="filter0_d_50_1542" x="0.333333" y="0" width="21.3333" height="21.3333" filterUnits="userSpaceOnUse" color-interpolation-filters="sRGB">
<feFlood flood-opacity="0" result="BackgroundImageFix"/>
<feColorMatrix in="SourceAlpha" type="matrix" values="0 0 0 0 0 0 0 0 0 0 0 0 0 0 0 0 0 0 127 0" result="hardAlpha"/>
<feOffset dy="2.66667"/>
<feGaussianBlur stdDeviation="1.33333"/>
<feComposite in2="hardAlpha" operator="out"/>
<feColorMatrix type="matrix" values="0 0 0 0 0 0 0 0 0 0 0 0 0 0 0 0 0 0 0.1 0"/>
<feBlend mode="normal" in2="BackgroundImageFix" result="effect1_dropShadow_50_1542"/>
<feBlend mode="normal" in="SourceGraphic" in2="effect1_dropShadow_50_1542" result="shape"/>
</filter>
<clipPath id="clip0_50_1542">
<rect width="7.11111" height="7.11111" fill="white" transform="translate(10.1111 6.2222)"/>
</clipPath>
</defs>
</svg>
