<svg width="18" height="18" viewBox="0 0 18 18" fill="none" xmlns="http://www.w3.org/2000/svg">
<path fill-rule="evenodd" clip-rule="evenodd" d="M18 9C18 13.9706 13.9706 18 9 18C4.02944 18 0 13.9706 0 9C0 4.02944 4.02944 0 9 0C13.9706 0 18 4.02944 18 9ZM9 14C8.44771 14 8 13.5523 8 13V9C8 8.44771 8.44772 8 9 8C9.55229 8 10 8.44772 10 9V13C10 13.5523 9.55228 14 9 14ZM8 6C8 6.55228 8.44771 7 9 7C9.55229 7 10 6.55228 10 6V5C10 4.44772 9.55229 4 9 4C8.44771 4 8 4.44772 8 5V6Z" fill="#FF2C20"/>
</svg>
