<svg width="97" height="119" viewBox="0 0 97 119" fill="none" xmlns="http://www.w3.org/2000/svg">
<rect x="1" y="0.5" width="95" height="117.485" rx="7.5" fill="white"/>
<rect x="1" y="0.5" width="95" height="117.485" rx="7.5" stroke="#D2D6DC"/>
<path d="M67.1798 12.1456H33.5414C33.0388 12.1456 32.5567 11.9459 32.2013 11.5905C31.8459 11.2351 31.6463 10.7531 31.6463 10.2505C31.6463 9.74785 31.8459 9.26582 32.2013 8.91041C32.5567 8.55501 33.0388 8.35535 33.5414 8.35535H67.1798C67.6825 8.35535 68.1645 8.55501 68.5199 8.91041C68.8753 9.26582 69.075 9.74785 69.075 10.2505C69.075 10.7531 68.8753 11.2351 68.5199 11.5905C68.1645 11.9459 67.6825 12.1456 67.1798 12.1456Z" fill="#CCCCCC"/>
<path d="M86.6049 18.5416H33.5414C33.0388 18.5416 32.5567 18.3419 32.2013 17.9865C31.8459 17.6311 31.6463 17.1491 31.6463 16.6465C31.6463 16.1438 31.8459 15.6618 32.2013 15.3064C32.5567 14.951 33.0388 14.7513 33.5414 14.7513H86.6049C87.1075 14.7513 87.5895 14.951 87.9449 15.3064C88.3003 15.6618 88.5 16.1438 88.5 16.6465C88.5 17.1491 88.3003 17.6311 87.9449 17.9865C87.5895 18.3419 87.1075 18.5416 86.6049 18.5416Z" fill="#CCCCCC"/>
<path d="M20.9368 18.897H10.7505C10.1538 18.8963 9.58179 18.659 9.15989 18.2371C8.738 17.8152 8.50068 17.2432 8.5 16.6465V10.2505C8.50068 9.65381 8.738 9.08179 9.15989 8.65989C9.58179 8.238 10.1538 8.00068 10.7505 8H20.9368C21.5334 8.00068 22.1054 8.238 22.5273 8.65989C22.9492 9.08179 23.1865 9.65381 23.1872 10.2505V16.6465C23.1865 17.2432 22.9492 17.8152 22.5273 18.2371C22.1054 18.659 21.5334 18.8963 20.9368 18.897ZM10.7505 8.47378C10.2794 8.4743 9.82782 8.66166 9.49474 8.99473C9.16166 9.32781 8.9743 9.77942 8.97378 10.2505V16.6465C8.97431 17.1175 9.16166 17.5691 9.49474 17.9022C9.82782 18.2353 10.2794 18.4227 10.7505 18.4232H20.9368C21.4078 18.4227 21.8594 18.2353 22.1925 17.9022C22.5256 17.5691 22.7129 17.1175 22.7134 16.6465V10.2505C22.7129 9.77942 22.5256 9.32781 22.1925 8.99473C21.8594 8.66166 21.4078 8.4743 20.9368 8.47378H10.7505Z" fill="#CCCCCC"/>
<path d="M15.8436 16.9398L15.2951 16.445C13.3472 14.6566 12.0613 13.4959 12.0613 12.05C12.0565 11.7749 12.1069 11.5016 12.2095 11.2463C12.3122 10.991 12.4651 10.759 12.659 10.5638C12.853 10.3687 13.0842 10.2144 13.3388 10.1102C13.5934 10.006 13.8664 9.95389 14.1416 9.95704C14.4663 9.95877 14.7867 10.0312 15.0806 10.1692C15.3745 10.3072 15.6349 10.5075 15.8436 10.7562C16.0523 10.5075 16.3127 10.3071 16.6066 10.1691C16.9005 10.0311 17.2209 9.95877 17.5456 9.95704C17.8208 9.95389 18.0937 10.006 18.3484 10.1102C18.603 10.2144 18.8342 10.3687 19.0282 10.5638C19.2221 10.759 19.375 10.991 19.4777 11.2463C19.5803 11.5016 19.6307 11.7749 19.6259 12.05C19.6259 13.4959 18.3399 14.6566 16.3921 16.445L15.8436 16.9398Z" fill="#6C63FF"/>
<path d="M67.1798 35.0426H33.5414C33.0388 35.0426 32.5567 34.8429 32.2013 34.4875C31.8459 34.1321 31.6463 33.6501 31.6463 33.1474C31.6463 32.6448 31.8459 32.1628 32.2013 31.8074C32.5567 31.452 33.0388 31.2523 33.5414 31.2523H67.1798C67.6825 31.2523 68.1645 31.452 68.5199 31.8074C68.8753 32.1628 69.075 32.6448 69.075 33.1474C69.075 33.6501 68.8753 34.1321 68.5199 34.4875C68.1645 34.8429 67.6825 35.0426 67.1798 35.0426Z" fill="#CCCCCC"/>
<path d="M86.6049 41.4386H33.5414C33.0388 41.4386 32.5567 41.2389 32.2013 40.8835C31.8459 40.5281 31.6463 40.0461 31.6463 39.5434C31.6463 39.0408 31.8459 38.5588 32.2013 38.2034C32.5567 37.848 33.0388 37.6483 33.5414 37.6483H86.6049C87.1075 37.6483 87.5895 37.848 87.9449 38.2034C88.3003 38.5588 88.5 39.0408 88.5 39.5434C88.5 40.0461 88.3003 40.5281 87.9449 40.8835C87.5895 41.2389 87.1075 41.4386 86.6049 41.4386Z" fill="#CCCCCC"/>
<path d="M20.9368 41.7939H10.7505C10.1538 41.7933 9.58179 41.5559 9.15989 41.134C8.738 40.7121 8.50068 40.1401 8.5 39.5435V33.1474C8.50068 32.5508 8.738 31.9788 9.15989 31.5569C9.58179 31.135 10.1538 30.8976 10.7505 30.897H20.9368C21.5334 30.8976 22.1054 31.135 22.5273 31.5569C22.9492 31.9788 23.1865 32.5508 23.1872 33.1474V39.5435C23.1865 40.1401 22.9492 40.7121 22.5273 41.134C22.1054 41.5559 21.5334 41.7933 20.9368 41.7939ZM10.7505 31.3708C10.2794 31.3713 9.82782 31.5586 9.49474 31.8917C9.16166 32.2248 8.9743 32.6764 8.97378 33.1474V39.5435C8.97431 40.0145 9.16166 40.4661 9.49474 40.7992C9.82782 41.1323 10.2794 41.3196 10.7505 41.3202H20.9368C21.4078 41.3196 21.8594 41.1323 22.1925 40.7992C22.5256 40.4661 22.7129 40.0145 22.7134 39.5435V33.1474C22.7129 32.6764 22.5256 32.2248 22.1925 31.8917C21.8594 31.5586 21.4078 31.3713 20.9368 31.3708H10.7505Z" fill="#CCCCCC"/>
<path d="M15.8436 39.8368L15.2951 39.342C13.3472 37.5536 12.0613 36.3929 12.0613 34.9469C12.0565 34.6718 12.1069 34.3985 12.2095 34.1433C12.3122 33.888 12.4651 33.6559 12.659 33.4608C12.853 33.2656 13.0842 33.1114 13.3388 33.0072C13.5934 32.9029 13.8664 32.8509 14.1416 32.854C14.4663 32.8557 14.7867 32.9281 15.0806 33.0661C15.3745 33.2041 15.6349 33.4044 15.8436 33.6532C16.0523 33.4044 16.3127 33.2041 16.6066 33.0661C16.9005 32.9281 17.2209 32.8557 17.5456 32.854C17.8208 32.8509 18.0937 32.9029 18.3484 33.0072C18.603 33.1114 18.8342 33.2656 19.0282 33.4608C19.2221 33.6559 19.375 33.888 19.4777 34.1433C19.5803 34.3985 19.6307 34.6718 19.6259 34.9469C19.6259 36.3929 18.3399 37.5536 16.3921 39.342L15.8436 39.8368Z" fill="#6C63FF"/>
<path d="M67.1798 57.9395H33.5414C33.0388 57.9395 32.5567 57.7399 32.2013 57.3845C31.8459 57.0291 31.6463 56.547 31.6463 56.0444C31.6463 55.5418 31.8459 55.0598 32.2013 54.7044C32.5567 54.349 33.0388 54.1493 33.5414 54.1493H67.1798C67.6825 54.1493 68.1645 54.349 68.5199 54.7044C68.8753 55.0598 69.075 55.5418 69.075 56.0444C69.075 56.547 68.8753 57.0291 68.5199 57.3845C68.1645 57.7399 67.6825 57.9395 67.1798 57.9395Z" fill="#CCCCCC"/>
<path d="M86.6049 64.3355H33.5414C33.0388 64.3355 32.5567 64.1359 32.2013 63.7805C31.8459 63.4251 31.6463 62.943 31.6463 62.4404C31.6463 61.9378 31.8459 61.4558 32.2013 61.1004C32.5567 60.745 33.0388 60.5453 33.5414 60.5453H86.6049C87.1075 60.5453 87.5895 60.745 87.9449 61.1004C88.3003 61.4558 88.5 61.9378 88.5 62.4404C88.5 62.943 88.3003 63.4251 87.9449 63.7805C87.5895 64.1359 87.1075 64.3355 86.6049 64.3355Z" fill="#CCCCCC"/>
<path d="M20.9368 64.6909H10.7505C10.1538 64.6902 9.58179 64.4529 9.15989 64.031C8.738 63.6091 8.50068 63.0371 8.5 62.4405V56.0444C8.50068 55.4478 8.738 54.8757 9.15989 54.4538C9.58179 54.0319 10.1538 53.7946 10.7505 53.7939H20.9368C21.5334 53.7946 22.1054 54.0319 22.5273 54.4538C22.9492 54.8757 23.1865 55.4478 23.1872 56.0444V62.4405C23.1865 63.0371 22.9492 63.6091 22.5273 64.031C22.1054 64.4529 21.5334 64.6902 20.9368 64.6909ZM10.7505 54.2677C10.2794 54.2683 9.82782 54.4556 9.49474 54.7887C9.16166 55.1218 8.9743 55.5734 8.97378 56.0444V62.4405C8.97431 62.9115 9.16166 63.3631 9.49474 63.6962C9.82782 64.0292 10.2794 64.2166 10.7505 64.2171H20.9368C21.4078 64.2166 21.8594 64.0292 22.1925 63.6962C22.5256 63.3631 22.7129 62.9115 22.7134 62.4405V56.0444C22.7129 55.5734 22.5256 55.1218 22.1925 54.7887C21.8594 54.4556 21.4078 54.2683 20.9368 54.2677H10.7505Z" fill="#CCCCCC"/>
<path d="M15.8436 62.7338L15.2951 62.2389C13.3472 60.4506 12.0613 59.2898 12.0613 57.8439C12.0565 57.5688 12.1069 57.2955 12.2095 57.0402C12.3122 56.785 12.4651 56.5529 12.659 56.3577C12.853 56.1626 13.0842 56.0083 13.3388 55.9041C13.5934 55.7999 13.8664 55.7478 14.1416 55.751C14.4663 55.7527 14.7867 55.8251 15.0806 55.9631C15.3745 56.1011 15.6349 56.3014 15.8436 56.5501C16.0523 56.3014 16.3127 56.1011 16.6066 55.9631C16.9005 55.8251 17.2209 55.7527 17.5456 55.751C17.8208 55.7478 18.0937 55.7999 18.3484 55.9041C18.603 56.0083 18.8342 56.1626 19.0282 56.3577C19.2221 56.5529 19.375 56.785 19.4777 57.0402C19.5803 57.2955 19.6307 57.5688 19.6259 57.8439C19.6259 59.2898 18.3399 60.4506 16.3921 62.2389L15.8436 62.7338Z" fill="#6C63FF"/>
<path d="M67.1798 80.8365H33.5414C33.0388 80.8365 32.5567 80.6369 32.2013 80.2814C31.8459 79.926 31.6463 79.444 31.6463 78.9414C31.6463 78.4388 31.8459 77.9567 32.2013 77.6013C32.5567 77.2459 33.0388 77.0463 33.5414 77.0463H67.1798C67.6825 77.0463 68.1645 77.2459 68.5199 77.6013C68.8753 77.9567 69.075 78.4388 69.075 78.9414C69.075 79.444 68.8753 79.926 68.5199 80.2814C68.1645 80.6369 67.6825 80.8365 67.1798 80.8365Z" fill="#F2F2F2"/>
<path d="M86.6049 87.2326H33.5414C33.0388 87.2326 32.5567 87.033 32.2013 86.6776C31.8459 86.3222 31.6463 85.8401 31.6463 85.3375C31.6463 84.8349 31.8459 84.3529 32.2013 83.9975C32.5567 83.642 33.0388 83.4424 33.5414 83.4424H86.6049C87.1075 83.4424 87.5895 83.642 87.9449 83.9975C88.3003 84.3529 88.5 84.8349 88.5 85.3375C88.5 85.8401 88.3003 86.3222 87.9449 86.6776C87.5895 87.033 87.1075 87.2326 86.6049 87.2326Z" fill="#F2F2F2"/>
<path d="M20.9368 87.5879H10.7505C10.1538 87.5872 9.58179 87.3499 9.15989 86.928C8.738 86.5061 8.50068 85.9341 8.5 85.3374V78.9414C8.50068 78.3447 8.738 77.7727 9.15989 77.3508C9.58179 76.9289 10.1538 76.6916 10.7505 76.6909H20.9368C21.5334 76.6916 22.1054 76.9289 22.5273 77.3508C22.9492 77.7727 23.1865 78.3447 23.1872 78.9414V85.3374C23.1865 85.9341 22.9492 86.5061 22.5273 86.928C22.1054 87.3499 21.5334 87.5872 20.9368 87.5879Z" fill="#F2F2F2"/>
<path d="M67.1798 103.733H33.5414C33.0388 103.733 32.5567 103.534 32.2013 103.178C31.8459 102.823 31.6463 102.341 31.6463 101.838C31.6463 101.336 31.8459 100.854 32.2013 100.498C32.5567 100.143 33.0388 99.9432 33.5414 99.9432H67.1798C67.6825 99.9432 68.1645 100.143 68.5199 100.498C68.8753 100.854 69.075 101.336 69.075 101.838C69.075 102.341 68.8753 102.823 68.5199 103.178C68.1645 103.534 67.6825 103.733 67.1798 103.733Z" fill="#F2F2F2"/>
<path d="M86.6049 110.13H33.5414C33.0388 110.13 32.5567 109.93 32.2013 109.575C31.8459 109.219 31.6463 108.737 31.6463 108.234C31.6463 107.732 31.8459 107.25 32.2013 106.894C32.5567 106.539 33.0388 106.339 33.5414 106.339H86.6049C87.1075 106.339 87.5895 106.539 87.9449 106.894C88.3003 107.25 88.5 107.732 88.5 108.234C88.5 108.737 88.3003 109.219 87.9449 109.575C87.5895 109.93 87.1075 110.13 86.6049 110.13Z" fill="#F2F2F2"/>
<path d="M20.9368 110.485H10.7505C10.1538 110.484 9.58179 110.247 9.15989 109.825C8.738 109.403 8.50068 108.831 8.5 108.234V101.838C8.50068 101.242 8.738 100.67 9.15989 100.248C9.58179 99.8259 10.1538 99.5886 10.7505 99.5879H20.9368C21.5334 99.5886 22.1054 99.8259 22.5273 100.248C22.9492 100.67 23.1865 101.242 23.1872 101.838V108.234C23.1865 108.831 22.9492 109.403 22.5273 109.825C22.1054 110.247 21.5334 110.484 20.9368 110.485Z" fill="#F2F2F2"/>
</svg>
